<mxfile host="app.diagrams.net" modified="2024-01-16T12:01:56.551Z" agent="Mozilla/5.0 (Macintosh; Intel Mac OS X 10_15_7) AppleWebKit/537.36 (KHTML, like Gecko) Chrome/119.0.0.0 Safari/537.36" version="22.1.18" etag="axJf8t2IyUiH1sHUXR2j" type="github">
  <diagram name="第 1 页" id="yzGzabHlMqw9jQBTaSaY">
    <mxGraphModel>
      <root>
        <mxCell id="0" />
        <mxCell id="1" parent="0" />
      </root>
    </mxGraphModel>
  </diagram>
</mxfile>
